<?xml version="1.0" encoding="UTF-8" standalone="no"?>
<svg
   width="113.32668"
   height="42.221073"
   viewBox="0 0 113.32668 42.221073"
   fill="none"
   version="1.1"
   id="svg6"
   sodipodi:docname="baqup-tools-logo.svg"
   inkscape:version="1.4.2 (ebf0e940d0, 2025-05-08)"
   xmlns:inkscape="http://www.inkscape.org/namespaces/inkscape"
   xmlns:sodipodi="http://sodipodi.sourceforge.net/DTD/sodipodi-0.dtd"
   xmlns="http://www.w3.org/2000/svg"
   xmlns:svg="http://www.w3.org/2000/svg">
  <defs
     id="defs6">
    <inkscape:path-effect
       effect="spiro"
       id="path-effect2"
       is_visible="true"
       lpeversion="1" />
    <inkscape:path-effect
       effect="spiro"
       id="path-effect21"
       is_visible="true"
       lpeversion="1" />
    <inkscape:path-effect
       effect="spiro"
       id="path-effect19"
       is_visible="true"
       lpeversion="1" />
    <inkscape:path-effect
       effect="spiro"
       id="path-effect18"
       is_visible="true"
       lpeversion="1" />
    <inkscape:path-effect
       effect="spiro"
       id="path-effect16"
       is_visible="true"
       lpeversion="1" />
    <inkscape:path-effect
       effect="spiro"
       id="path-effect14"
       is_visible="true"
       lpeversion="1" />
  </defs>
  <sodipodi:namedview
     id="namedview6"
     pagecolor="#ffffff"
     bordercolor="#000000"
     borderopacity="0.25"
     inkscape:showpageshadow="2"
     inkscape:pageopacity="0.0"
     inkscape:pagecheckerboard="0"
     inkscape:deskcolor="#d1d1d1"
     inkscape:zoom="7.0399862"
     inkscape:cx="61.789894"
     inkscape:cy="23.934706"
     inkscape:window-width="1570"
     inkscape:window-height="970"
     inkscape:window-x="90"
     inkscape:window-y="130"
     inkscape:window-maximized="0"
     inkscape:current-layer="svg6" />
  <path
     style="fill:none;stroke:#083e60;stroke-width:4;stroke-linecap:round;stroke-linejoin:round;stroke-dasharray:none;stroke-opacity:1"
     d="m 49.759559,1.6228095 0.01601,13.4002425 m 0,0 c -0.04164,1.958247 0.74586,3.918661 2.122309,5.312164 1.376449,1.393504 3.322037,2.204302 5.28071,2.21239 1.918776,0.0079 3.832004,-0.753195 5.213152,-2.085184 1.381148,-1.331989 2.21193,-3.221071 2.248856,-5.139508 0.0374,-1.943203 -0.741133,-3.887176 -2.101274,-5.275503 C 61.17918,8.6590843 59.256464,7.8416584 57.3131,7.8138698 55.384307,7.7862895 53.453382,8.5362953 52.056741,9.8668585 50.6601,11.197422 49.81658,13.094498 49.775569,15.023052 Z"
     id="path14"
     inkscape:path-effect="#path-effect14"
     inkscape:original-d="m 49.759559,1.6228095 0.01601,13.4002425 m 0,0 c -0.158036,-2.074221 3.884699,7.481807 7.403019,7.524554 3.461885,0.04206 7.412859,-3.762901 7.462008,-7.224692 C 64.690243,11.825999 60.762995,7.2401901 57.3131,7.8138698 50.135473,9.0074305 51.36644,35.903277 49.775569,15.023052 Z"
     sodipodi:nodetypes="ccsaaas"
     inkscape:label="b"
     transform="translate(-45.454643,2.9829599)" />
  <path
     style="fill:none;stroke:#083e60;stroke-width:4;stroke-linecap:round;stroke-linejoin:round;stroke-dasharray:none;stroke-opacity:1"
     d="m 64.640596,15.322914 0.01601,7.292276 M 49.775569,15.023052 c -0.04164,1.958247 0.74586,3.918661 2.122309,5.312164 1.376449,1.393504 3.322037,2.204302 5.28071,2.21239 1.918776,0.0079 3.832004,-0.753195 5.213152,-2.085184 1.381148,-1.331989 2.21193,-3.221071 2.248856,-5.139508 0.0374,-1.943203 -0.741133,-3.887176 -2.101274,-5.275503 C 61.17918,8.6590843 59.256464,7.8416584 57.3131,7.8138698 55.384307,7.7862895 53.453382,8.5362953 52.056741,9.8668585 50.6601,11.197422 49.81658,13.094498 49.775569,15.023052 Z"
     id="path15"
     inkscape:path-effect="#path-effect16"
     inkscape:original-d="m 64.640596,15.322914 0.01601,7.292276 M 49.775569,15.023052 c -0.158036,-2.074221 3.884699,7.481807 7.403019,7.524554 3.461885,0.04206 7.412859,-3.762901 7.462008,-7.224692 C 64.690243,11.825999 60.762995,7.2401901 57.3131,7.8138698 50.135473,9.0074305 51.36644,35.903277 49.775569,15.023052 Z"
     sodipodi:nodetypes="ccsaaas"
     inkscape:label="a"
     transform="translate(-24.858012,2.9829599)" />
  <path
     style="fill:none;stroke:#083e60;stroke-width:4;stroke-linecap:round;stroke-linejoin:round;stroke-dasharray:none;stroke-opacity:1"
     d="m 59.229515,22.116337 c 1.114421,1.758888 3.050289,2.972234 5.119059,3.208479 1.70594,0.194811 3.478493,-0.265762 4.873814,-1.266393 M 47.431814,12.063476 c 0.0022,2.636635 1.089594,5.256316 2.955863,7.118811 1.866269,1.862495 4.488595,2.944608 7.125225,2.939182 2.629727,-0.0054 5.2409,-1.092364 7.098454,-2.953812 1.857553,-1.861449 2.938964,-4.474449 2.941178,-7.104181 C 67.554779,9.3976084 66.446619,6.7477392 64.546481,4.8778917 62.646343,3.0080441 59.978546,1.9425406 57.3131,1.9899947 54.707325,2.0363864 52.136067,3.1438098 50.311296,5.0045696 48.486525,6.8653294 47.429592,9.4572892 47.431814,12.063476 Z"
     id="path16"
     inkscape:path-effect="#path-effect18"
     inkscape:original-d="m 59.229515,22.116337 c 1.426334,1.445557 3.128715,2.901907 5.119059,3.208479 1.658987,0.255534 3.119982,-0.321374 4.873814,-1.266393 M 47.431814,12.063476 c 0.02558,4.746761 5.33426,10.062883 10.081088,10.057993 4.737055,-0.0049 10.061145,-5.320984 10.039632,-10.057993 C 67.530789,7.2755657 62.10087,1.9473804 57.3131,1.9899947 52.609684,2.0318583 47.406467,7.3599425 47.431814,12.063476 Z"
     sodipodi:nodetypes="cacaaaaa"
     inkscape:label="Q"
     transform="translate(-1.904577,2.9829599)" />
  <rect
     style="vector-effect:non-scaling-stroke;fill:#5ee9ae;fill-opacity:1;stroke:none;stroke-width:1;stroke-linecap:butt;stroke-linejoin:round;stroke-dasharray:none;stroke-opacity:1;-inkscape-stroke:hairline"
     id="rect19"
     width="8.6003056"
     height="8.5500832"
     x="71.046448"
     y="9.8506508"
     ry="0.89141816"
     inkscape:label="u2" />
  <path
     style="vector-effect:non-scaling-stroke;fill:#083e60;fill-opacity:1;stroke:none;stroke-width:1;stroke-linecap:butt;stroke-linejoin:round;stroke-dasharray:none;stroke-opacity:1;-inkscape-stroke:hairline"
     d="m 31.8209,18.0824 c 0.176772,0.407341 0.433781,0.779677 0.751972,1.089401 0.426831,0.415474 0.960423,0.715056 1.528661,0.893687 0.568238,0.17863 1.170526,0.238429 1.765355,0.207098 0.565004,-0.02976 1.128561,-0.142064 1.648879,-0.364289 0.520318,-0.222225 0.996666,-0.556745 1.355964,-0.993803 0.495503,-0.602743 0.750107,-1.372195 0.868605,-2.143415 0.118498,-0.771221 0.113205,-1.555431 0.112302,-2.335701 l -0.0058,-5.0138049 c -3.73e-4,-0.3220089 0.0037,-0.6466004 0.0718,-0.9613189 0.06813,-0.3147185 0.200651,-0.6173123 0.400827,-0.8695412 0.200176,-0.2522288 0.465161,-0.4512811 0.7601,-0.5805124 0.294939,-0.1292313 0.617423,-0.1898193 0.939331,-0.1978713 0.314417,-0.00786 0.632168,0.034389 0.926075,0.1463645 0.293908,0.111975 0.5615,0.2951499 0.765263,0.5347343 0.203763,0.2395845 0.340454,0.532648 0.411197,0.8391045 0.07074,0.3064565 0.07587,0.6237377 0.07636,0.938253 l 0.0082,5.2711464 c 0.0015,0.964853 -0.0057,1.934094 -0.157869,2.886878 -0.152144,0.952783 -0.447891,1.888895 -0.935208,2.721641 -0.744099,1.271547 -1.916706,2.267931 -3.246531,2.902029 -1.329824,0.634098 -2.811318,0.917107 -4.284477,0.93492 -2.239301,0.02708 -4.560473,-0.59968 -6.206963,-2.117663 C 28.296023,20.875031 27.550079,19.525186 27.282,18.0824 Z"
     id="path1"
     inkscape:path-effect="#path-effect2"
     inkscape:original-d="m 31.8209,18.0824 c 0,0 0.357166,0.892365 0.751972,1.089401 0.966693,0.482449 2.137828,1.159789 3.294016,1.100785 1.097737,-0.05602 2.312884,-0.504067 3.004843,-1.358092 0.962189,-1.187546 0.981661,-3.825581 0.980907,-4.479116 l -0.0058,-5.0138049 c -0.0016,-1.4014661 1.040527,-2.5917205 2.172057,-2.6092438 1.094886,-0.016956 2.176671,1.0324238 2.17889,2.4584563 l 0.0082,5.2711464 c 0.03297,1.302503 0.05359,4.087675 -1.093077,5.608519 C 41.41679,22.40006 38.392137,23.78695 35.5819,23.9874 33.40135,24.142935 31.050648,23.273652 29.374937,21.869737 28.269299,20.943431 27.282,18.0824 27.282,18.0824 Z"
     sodipodi:nodetypes="csaassascaaacc"
     inkscape:label="u1"
     transform="translate(44.090465,2.98296)" />
  <path
     style="fill:none;stroke:#083e60;stroke-width:4;stroke-linecap:round;stroke-linejoin:round;stroke-dasharray:none;stroke-opacity:1"
     d="m 49.775569,15.023052 0.01601,13.400242 m -0.01601,-13.400242 c -0.04164,1.958247 0.74586,3.918661 2.122309,5.312164 1.376449,1.393504 3.322037,2.204302 5.28071,2.21239 1.918776,0.0079 3.832004,-0.753195 5.213152,-2.085184 1.381148,-1.331989 2.21193,-3.221071 2.248856,-5.139508 0.0374,-1.943203 -0.741133,-3.887176 -2.101274,-5.275503 C 61.17918,8.6590843 59.256464,7.8416584 57.3131,7.8138698 55.384307,7.7862895 53.453382,8.5362953 52.056741,9.8668585 50.6601,11.197422 49.81658,13.094498 49.775569,15.023052 Z"
     id="path19"
     inkscape:path-effect="#path-effect21"
     inkscape:original-d="m 49.775569,15.023052 0.01601,13.400242 m -0.01601,-13.400242 c -0.158036,-2.074221 3.884699,7.481807 7.403019,7.524554 3.461885,0.04206 7.412859,-3.762901 7.462008,-7.224692 C 64.690243,11.825999 60.762995,7.2401901 57.3131,7.8138698 50.135473,9.0074305 51.36644,35.903277 49.775569,15.023052 Z"
     sodipodi:nodetypes="ccsaaas"
     inkscape:label="p"
     transform="translate(43.883813,2.9829599)" />
  <text
     xml:space="preserve"
     style="font-size:20.3438px;line-height:1;font-family:Karumbi;-inkscape-font-specification:Karumbi;text-align:start;writing-mode:lr-tb;direction:ltr;text-anchor:start;display:none;vector-effect:non-scaling-stroke;fill:#1f5e84;fill-opacity:1;stroke:none;stroke-width:0.672828;stroke-linecap:butt;stroke-linejoin:round;stroke-dasharray:none;stroke-opacity:1;-inkscape-stroke:hairline"
     x="58.817291"
     y="37.911221"
     id="text21"
     inkscape:label="Tools (Karumbi)"><tspan
       sodipodi:role="line"
       id="tspan21"
       x="58.817291"
       y="37.911221"
       style="stroke-width:0.672828">Tools</tspan></text>
  <path
     d="m 67.931313,31.950487 q 0,0.08137 -0.183094,0.26447 l -0.183094,0.06103 q -1.586816,0 -3.722915,0.325501 -0.08138,0.732377 -0.122063,1.546129 -0.02034,0.813752 -0.101719,1.627504 -0.16275,1.973348 -0.610314,3.05157 -0.16275,0.386532 -0.508595,0.284813 -0.345845,-0.101719 -0.264469,-0.508595 0.406876,-1.118909 0.508595,-2.359881 0.101719,-1.261316 0.142406,-2.014036 0.04069,-0.752721 0.122063,-1.485098 -0.630658,0.122063 -1.281659,0.325501 -0.630658,0.183094 -1.261316,0.203438 -0.122063,0.122063 -0.264469,0.122063 -0.142407,0 -0.244126,-0.08138 -0.264469,-0.244126 -0.08138,-0.58997 0.142406,-0.203438 0.58997,-0.26447 1.769911,-0.345844 3.499134,-0.651001 1.729223,-0.325501 3.539821,-0.345845 h 0.101719 q 0.264469,0.122063 0.284813,0.203438 0.02034,0.08138 0.02034,0.08138 0.02034,0 0.02034,0.02034 v 0.04069 q 0.04069,0.08137 0,0.142406 z m 1.26131,4.251854 q 0.122063,-0.3255 0.284813,-0.732376 0.122063,-0.42722 0.325501,-0.773065 0.467908,-0.915471 0.976503,-1.302003 l 0.06103,-0.122063 q 1.078221,-0.935815 2.136099,-0.691689 0.488251,0.122063 0.85444,0.467907 0.366188,0.325501 0.528938,0.793409 0.406876,1.098565 -0.284813,2.339537 -0.447563,0.834095 -1.505441,1.34269 -0.773064,0.386533 -1.973349,0.528939 -0.671345,0.101719 -1.159596,-0.549282 -0.488251,-0.651002 -0.244126,-1.302004 z m 3.417759,0.345845 q 0.467907,-0.325501 0.773064,-0.752721 0.305157,-0.447563 0.305157,-1.139252 0,-0.69169 -0.366188,-1.037534 -0.366189,-0.345845 -0.895128,-0.26447 -0.08138,0.244126 -0.345844,0.305157 -0.773065,0.101719 -1.403722,1.078222 -0.549283,0.854439 -0.69169,1.647848 -0.04069,0.16275 0.02034,0.3255 0.08137,0.142407 0.122063,0.305157 0.122063,0.04069 0.244126,0.122063 0.122062,0.06103 0.406876,0.08138 0.305157,0.02034 0.834095,-0.16275 0.549283,-0.183094 0.996847,-0.508595 z m 2.807438,-0.345845 q 0.122063,-0.3255 0.284813,-0.732376 0.122063,-0.42722 0.325501,-0.773065 0.467907,-0.915471 0.976502,-1.302003 l 0.06103,-0.122063 q 1.078221,-0.935815 2.136099,-0.691689 0.488251,0.122063 0.854439,0.467907 0.366189,0.325501 0.528939,0.793409 0.406876,1.098565 -0.284813,2.339537 -0.447564,0.834095 -1.505441,1.34269 -0.773065,0.386533 -1.973349,0.528939 -0.671345,0.101719 -1.159596,-0.549282 -0.488252,-0.651002 -0.244126,-1.302004 z m 3.417758,0.345845 q 0.467908,-0.325501 0.773065,-0.752721 0.305157,-0.447563 0.305157,-1.139252 0,-0.69169 -0.366189,-1.037534 -0.366188,-0.345845 -0.895127,-0.26447 -0.08137,0.244126 -0.345844,0.305157 -0.773065,0.101719 -1.403723,1.078222 -0.549282,0.854439 -0.691689,1.647848 -0.04069,0.16275 0.02034,0.3255 0.08137,0.142407 0.122063,0.305157 0.122063,0.04069 0.244125,0.122063 0.122063,0.06103 0.406876,0.08138 0.305157,0.02034 0.834096,-0.16275 0.549283,-0.183094 0.996846,-0.508595 z m 2.461596,1.769911 q -0.08137,-0.284814 0.04069,-0.406876 0.101719,-0.142407 0.244125,-0.162751 0.08138,-0.122063 0.203438,-0.325501 0.122063,-0.203438 0.244126,-0.406876 0.712033,-1.139252 1.342691,-2.258161 0.630658,-1.118909 1.220628,-2.054724 0.142406,-0.345845 0.305157,-0.58997 0.122063,-0.284814 0.203438,-0.549283 0.101719,-0.284813 0.244125,-0.549283 0.162751,-0.284813 0.42722,-0.223781 0.26447,0.04069 0.366189,0.3255 -0.06103,0.589971 -0.488252,1.302004 -0.04069,0.101719 -0.101719,0.203438 -0.04069,0.101719 -0.122062,0.244125 l -0.162751,0.325501 q -1.220628,2.441256 -1.139253,4.475636 0.04069,0.691689 0.26447,1.302003 0.142406,0.386532 -0.223782,0.549283 -0.345845,0.16275 -0.528939,-0.244126 -0.488251,-1.302003 -0.203438,-3.010882 -0.142406,0.264469 -0.42722,0.712033 -0.101719,0.16275 -0.223781,0.406876 -0.122063,0.244125 -0.244126,0.488251 -0.325501,0.58997 -0.691689,0.712033 -0.386532,0.06103 -0.549283,-0.264469 z m 9.419161,-4.170479 q 0.284813,0.244125 0.203438,0.447563 -0.16275,0.386532 -0.508595,0.305157 -0.406876,-0.16275 -0.895127,0 -0.813752,0.26447 -1.363035,0.58997 0.386533,0.244126 0.813752,0.386533 0.447564,0.142406 0.813752,0.366188 0.85444,0.447564 1.057878,1.220628 -0.04069,0.244126 -0.142407,0.366188 -0.874783,0.610314 -2.237818,0.895128 -1.322347,0.284813 -2.420912,0.06103 -0.345844,-0.16275 -0.264469,-0.467907 0.08138,-0.284814 0.42722,-0.325501 1.302003,0.223782 2.970194,-0.284813 0.488252,-0.142407 0.773065,-0.345845 -0.345845,-0.244126 -0.773065,-0.406876 -0.427219,-0.16275 -0.834095,-0.345845 -0.386533,-0.203438 -0.69169,-0.467907 -0.284813,-0.264469 -0.366188,-0.732377 -0.02034,-0.284813 0.183094,-0.447563 2.03438,-1.261316 3.255008,-0.813752 z"
     id="text22"
     style="font-size:20.3438px;line-height:1;font-family:Karumbi;-inkscape-font-specification:Karumbi;fill:#1f5e84;stroke-width:0.672828;stroke-linejoin:round"
     inkscape:label="Tools"
     aria-label="Tools" />
  <g
     id="g4"
     transform="translate(0.07349717)">
    <path
       style="fill:none;stroke:#ffffff;stroke-linejoin:round;stroke-opacity:1"
       d="m 75.306015,10.676785 v 4.293874"
       id="path2"
       sodipodi:nodetypes="cc" />
    <path
       style="fill:none;stroke:#ffffff;stroke-linejoin:round;stroke-opacity:1"
       d="m 73.357039,13.212933 1.948976,1.757726 1.867801,-1.833057"
       id="path3"
       sodipodi:nodetypes="ccc" />
  </g>
  <path
     style="fill:none;stroke:#ffffff;stroke-linejoin:round;stroke-opacity:1"
     d="m 72.407948,15.229814 v 1.841672 h 5.877306 v -1.819773"
     id="path4"
     sodipodi:nodetypes="cccc" />
</svg>
