<?xml version="1.0" encoding="UTF-8"?>
<svg fill="none" version="1.1" viewBox="0 0 113.33 42.221" xmlns="http://www.w3.org/2000/svg"><g fill="none" stroke="#083e60" stroke-linecap="round" stroke-linejoin="round" stroke-width="4"><path transform="translate(-45.455 2.983)" d="m49.76 1.6228 0.01601 13.4m0 0c-0.04164 1.9582 0.74586 3.9187 2.1223 5.3122 1.3764 1.3935 3.322 2.2043 5.2807 2.2124 1.9188 0.0079 3.832-0.7532 5.2132-2.0852s2.2119-3.2211 2.2489-5.1395c0.0374-1.9432-0.74113-3.8872-2.1013-5.2755-1.3601-1.3883-3.2829-2.2058-5.2262-2.2335-1.9288-0.02758-3.8597 0.72243-5.2564 2.053-1.3966 1.3306-2.2402 3.2276-2.2812 5.1562z"/><path transform="translate(-24.858 2.983)" d="m64.641 15.323 0.01601 7.2923m-14.881-7.5921c-0.04164 1.9582 0.74586 3.9187 2.1223 5.3122 1.3764 1.3935 3.322 2.2043 5.2807 2.2124 1.9188 0.0079 3.832-0.7532 5.2132-2.0852s2.2119-3.2211 2.2489-5.1395c0.0374-1.9432-0.74113-3.8872-2.1013-5.2755-1.3601-1.3883-3.2829-2.2058-5.2262-2.2335-1.9288-0.02758-3.8597 0.72243-5.2564 2.053-1.3966 1.3306-2.2402 3.2276-2.2812 5.1562z"/><path transform="translate(-1.9046 2.983)" d="m59.23 22.116c1.1144 1.7589 3.0503 2.9722 5.1191 3.2085 1.7059 0.19481 3.4785-0.26576 4.8738-1.2664m-21.791-11.995c0.0022 2.6366 1.0896 5.2563 2.9559 7.1188s4.4886 2.9446 7.1252 2.9392c2.6297-0.0054 5.2409-1.0924 7.0985-2.9538 1.8576-1.8614 2.939-4.4744 2.9412-7.1042 0.002245-2.6659-1.1059-5.3157-3.0061-7.1856-1.9001-1.8698-4.5679-2.9354-7.2334-2.8879-2.6058 0.046392-5.177 1.1538-7.0018 3.0146s-2.8817 4.4527-2.8795 7.0589z"/></g><rect x="71.046" y="9.8507" width="8.6003" height="8.5501" ry=".89142" fill="#5ee9ae" vector-effect="non-scaling-stroke" style="-inkscape-stroke:hairline"/><path transform="translate(44.09 2.983)" d="m31.821 18.082c0.17677 0.40734 0.43378 0.77968 0.75197 1.0894 0.42683 0.41547 0.96042 0.71506 1.5287 0.89369 0.56824 0.17863 1.1705 0.23843 1.7654 0.2071 0.565-0.02976 1.1286-0.14206 1.6489-0.36429s0.99667-0.55674 1.356-0.9938c0.4955-0.60274 0.75011-1.3722 0.8686-2.1434 0.1185-0.77122 0.1132-1.5554 0.1123-2.3357l-0.0058-5.0138c-3.73e-4 -0.32201 0.0037-0.6466 0.0718-0.96132 0.06813-0.31472 0.20065-0.61731 0.40083-0.86954 0.20018-0.25223 0.46516-0.45128 0.7601-0.58051s0.61742-0.18982 0.93933-0.19787c0.31442-0.00786 0.63217 0.034389 0.92608 0.14636 0.29391 0.11198 0.5615 0.29515 0.76526 0.53473 0.20376 0.23958 0.34045 0.53265 0.4112 0.8391 0.07074 0.30646 0.07587 0.62374 0.07636 0.93825l0.0082 5.2711c0.0015 0.96485-0.0057 1.9341-0.15787 2.8869-0.15214 0.95278-0.44789 1.8889-0.93521 2.7216-0.7441 1.2715-1.9167 2.2679-3.2465 2.902-1.3298 0.6341-2.8113 0.91711-4.2845 0.93492-2.2393 0.02708-4.5605-0.59968-6.207-2.1177-1.0789-0.99471-1.8249-2.3446-2.0929-3.7873z" fill="#083e60" vector-effect="non-scaling-stroke" style="-inkscape-stroke:hairline"/><g stroke-linejoin="round"><path transform="translate(43.884 2.983)" d="m49.776 15.023 0.01601 13.4m-0.01601-13.4c-0.04164 1.9582 0.74586 3.9187 2.1223 5.3122 1.3764 1.3935 3.322 2.2043 5.2807 2.2124 1.9188 0.0079 3.832-0.7532 5.2132-2.0852s2.2119-3.2211 2.2489-5.1395c0.0374-1.9432-0.74113-3.8872-2.1013-5.2755-1.3601-1.3883-3.2829-2.2058-5.2262-2.2335-1.9288-0.02758-3.8597 0.72243-5.2564 2.053-1.3966 1.3306-2.2402 3.2276-2.2812 5.1562z" fill="none" stroke="#083e60" stroke-linecap="round" stroke-width="4"/><text x="58.817291" y="37.911221" display="none" fill="#1f5e84" font-family="Karumbi" font-size="20.344px" stroke-width=".67283" vector-effect="non-scaling-stroke" style="-inkscape-stroke:hairline;line-height:1" xml:space="preserve"><tspan x="58.817291" y="37.911221" stroke-width=".67283">Tools</tspan></text><path d="m67.931 31.95q0 0.08137-0.18309 0.26447l-0.18309 0.06103q-1.5868 0-3.7229 0.3255-0.08138 0.73238-0.12206 1.5461-0.02034 0.81375-0.10172 1.6275-0.16275 1.9733-0.61031 3.0516-0.16275 0.38653-0.5086 0.28481t-0.26447-0.5086q0.40688-1.1189 0.5086-2.3599 0.10172-1.2613 0.14241-2.014 0.04069-0.75272 0.12206-1.4851-0.63066 0.12206-1.2817 0.3255-0.63066 0.18309-1.2613 0.20344-0.12206 0.12206-0.26447 0.12206-0.14241 0-0.24413-0.08138-0.26447-0.24413-0.08138-0.58997 0.14241-0.20344 0.58997-0.26447 1.7699-0.34584 3.4991-0.651 1.7292-0.3255 3.5398-0.34584h0.10172q0.26447 0.12206 0.28481 0.20344 0.02034 0.08138 0.02034 0.08138 0.02034 0 0.02034 0.02034v0.04069q0.04069 0.08137 0 0.14241zm1.2613 4.2519q0.12206-0.3255 0.28481-0.73238 0.12206-0.42722 0.3255-0.77306 0.46791-0.91547 0.9765-1.302l0.06103-0.12206q1.0782-0.93582 2.1361-0.69169 0.48825 0.12206 0.85444 0.46791 0.36619 0.3255 0.52894 0.79341 0.40688 1.0986-0.28481 2.3395-0.44756 0.8341-1.5054 1.3427-0.77306 0.38653-1.9733 0.52894-0.67134 0.10172-1.1596-0.54928-0.48825-0.651-0.24413-1.302zm3.4178 0.34584q0.46791-0.3255 0.77306-0.75272 0.30516-0.44756 0.30516-1.1393 0-0.69169-0.36619-1.0375-0.36619-0.34584-0.89513-0.26447-0.08138 0.24413-0.34584 0.30516-0.77306 0.10172-1.4037 1.0782-0.54928 0.85444-0.69169 1.6478-0.04069 0.16275 0.02034 0.3255 0.08137 0.14241 0.12206 0.30516 0.12206 0.04069 0.24413 0.12206 0.12206 0.06103 0.40688 0.08138 0.30516 0.02034 0.8341-0.16275 0.54928-0.18309 0.99685-0.5086zm2.8074-0.34584q0.12206-0.3255 0.28481-0.73238 0.12206-0.42722 0.3255-0.77306 0.46791-0.91547 0.9765-1.302l0.06103-0.12206q1.0782-0.93582 2.1361-0.69169 0.48825 0.12206 0.85444 0.46791 0.36619 0.3255 0.52894 0.79341 0.40688 1.0986-0.28481 2.3395-0.44756 0.8341-1.5054 1.3427-0.77306 0.38653-1.9733 0.52894-0.67134 0.10172-1.1596-0.54928-0.48825-0.651-0.24413-1.302zm3.4178 0.34584q0.46791-0.3255 0.77306-0.75272 0.30516-0.44756 0.30516-1.1393 0-0.69169-0.36619-1.0375-0.36619-0.34584-0.89513-0.26447-0.08137 0.24413-0.34584 0.30516-0.77306 0.10172-1.4037 1.0782-0.54928 0.85444-0.69169 1.6478-0.04069 0.16275 0.02034 0.3255 0.08137 0.14241 0.12206 0.30516 0.12206 0.04069 0.24412 0.12206 0.12206 0.06103 0.40688 0.08138 0.30516 0.02034 0.8341-0.16275 0.54928-0.18309 0.99685-0.5086zm2.4616 1.7699q-0.08137-0.28481 0.04069-0.40688 0.10172-0.14241 0.24412-0.16275 0.08138-0.12206 0.20344-0.3255 0.12206-0.20344 0.24413-0.40688 0.71203-1.1393 1.3427-2.2582t1.2206-2.0547q0.14241-0.34584 0.30516-0.58997 0.12206-0.28481 0.20344-0.54928 0.10172-0.28481 0.24412-0.54928 0.16275-0.28481 0.42722-0.22378 0.26447 0.04069 0.36619 0.3255-0.06103 0.58997-0.48825 1.302-0.04069 0.10172-0.10172 0.20344-0.04069 0.10172-0.12206 0.24412l-0.16275 0.3255q-1.2206 2.4413-1.1393 4.4756 0.04069 0.69169 0.26447 1.302 0.14241 0.38653-0.22378 0.54928-0.34584 0.16275-0.52894-0.24413-0.48825-1.302-0.20344-3.0109-0.14241 0.26447-0.42722 0.71203-0.10172 0.16275-0.22378 0.40688-0.12206 0.24412-0.24413 0.48825-0.3255 0.58997-0.69169 0.71203-0.38653 0.06103-0.54928-0.26447zm9.4192-4.1705q0.28481 0.24412 0.20344 0.44756-0.16275 0.38653-0.5086 0.30516-0.40688-0.16275-0.89513 0-0.81375 0.26447-1.363 0.58997 0.38653 0.24413 0.81375 0.38653 0.44756 0.14241 0.81375 0.36619 0.85444 0.44756 1.0579 1.2206-0.04069 0.24413-0.14241 0.36619-0.87478 0.61031-2.2378 0.89513-1.3223 0.28481-2.4209 0.06103-0.34584-0.16275-0.26447-0.46791 0.08138-0.28481 0.42722-0.3255 1.302 0.22378 2.9702-0.28481 0.48825-0.14241 0.77306-0.34584-0.34584-0.24413-0.77306-0.40688-0.42722-0.16275-0.8341-0.34584-0.38653-0.20344-0.69169-0.46791-0.28481-0.26447-0.36619-0.73238-0.02034-0.28481 0.18309-0.44756 2.0344-1.2613 3.255-0.81375z" fill="#1f5e84" stroke-width=".67283" aria-label="Tools"/></g><g transform="translate(.073497)" fill="none" stroke="#fff" stroke-linejoin="round"><path d="m75.306 10.677v4.2939"/><path d="m73.357 13.213 1.949 1.7577 1.8678-1.8331"/></g><path d="m72.408 15.23v1.8417h5.8773v-1.8198" fill="none" stroke="#fff" stroke-linejoin="round"/></svg>
