<?xml version="1.0" encoding="UTF-8" standalone="no"?>
<svg
   width="982.91614"
   height="360.98233"
   viewBox="0 0 982.91614 360.98233"
   fill="none"
   version="1.1"
   id="svg6"
   sodipodi:docname="baqup-tools-logo.svg"
   inkscape:version="1.4.2 (ebf0e940d0, 2025-05-08)"
   inkscape:export-filename="og-image.jpg"
   inkscape:export-xdpi="96"
   inkscape:export-ydpi="96"
   xmlns:inkscape="http://www.inkscape.org/namespaces/inkscape"
   xmlns:sodipodi="http://sodipodi.sourceforge.net/DTD/sodipodi-0.dtd"
   xmlns="http://www.w3.org/2000/svg"
   xmlns:svg="http://www.w3.org/2000/svg">
  <defs
     id="defs6">
    <inkscape:path-effect
       effect="spiro"
       id="path-effect2"
       is_visible="true"
       lpeversion="1" />
    <inkscape:path-effect
       effect="spiro"
       id="path-effect21"
       is_visible="true"
       lpeversion="1" />
    <inkscape:path-effect
       effect="spiro"
       id="path-effect19"
       is_visible="true"
       lpeversion="1" />
    <inkscape:path-effect
       effect="spiro"
       id="path-effect18"
       is_visible="true"
       lpeversion="1" />
    <inkscape:path-effect
       effect="spiro"
       id="path-effect16"
       is_visible="true"
       lpeversion="1" />
    <inkscape:path-effect
       effect="spiro"
       id="path-effect14"
       is_visible="true"
       lpeversion="1" />
  </defs>
  <sodipodi:namedview
     id="namedview6"
     pagecolor="#ffffff"
     bordercolor="#000000"
     borderopacity="0.25"
     inkscape:showpageshadow="2"
     inkscape:pageopacity="0.0"
     inkscape:pagecheckerboard="0"
     inkscape:deskcolor="#d1d1d1"
     inkscape:zoom="0.62225275"
     inkscape:cx="461.22737"
     inkscape:cy="206.50773"
     inkscape:window-width="1570"
     inkscape:window-height="970"
     inkscape:window-x="90"
     inkscape:window-y="130"
     inkscape:window-maximized="0"
     inkscape:current-layer="svg6"
     inkscape:export-bgcolor="#ffffffff" />
  <text
     xml:space="preserve"
     style="font-size:20.3438px;line-height:1;font-family:Karumbi;-inkscape-font-specification:Karumbi;text-align:start;writing-mode:lr-tb;direction:ltr;text-anchor:start;display:none;vector-effect:non-scaling-stroke;fill:#1f5e84;fill-opacity:1;stroke:none;stroke-width:0.672828;stroke-linecap:butt;stroke-linejoin:round;stroke-dasharray:none;stroke-opacity:1;-inkscape-stroke:hairline"
     x="-49.963058"
     y="-24.264275"
     id="text21"
     inkscape:label="Tools (Karumbi)"><tspan
       sodipodi:role="line"
       id="tspan21"
       x="-108.78035"
       y="-62.175495"
       style="stroke-width:0.672828">Tools</tspan></text>
  <g
     id="g5"
     transform="matrix(8.6660083,0,0,8.6660083,2.3239303,0.94309485)">
    <path
       style="fill:none;stroke:#083e60;stroke-width:4;stroke-linecap:round;stroke-linejoin:round;stroke-dasharray:none;stroke-opacity:1"
       d="m 49.759559,1.6228095 0.01601,13.4002425 m 0,0 c -0.04164,1.958247 0.74586,3.918661 2.122309,5.312164 1.376449,1.393504 3.322037,2.204302 5.28071,2.21239 1.918776,0.0079 3.832004,-0.753195 5.213152,-2.085184 1.381148,-1.331989 2.21193,-3.221071 2.248856,-5.139508 0.0374,-1.943203 -0.741133,-3.887176 -2.101274,-5.275503 C 61.17918,8.6590843 59.256464,7.8416584 57.3131,7.8138698 55.384307,7.7862895 53.453382,8.5362953 52.056741,9.8668585 50.6601,11.197422 49.81658,13.094498 49.775569,15.023052 Z"
       id="path14"
       inkscape:path-effect="#path-effect14"
       inkscape:original-d="m 49.759559,1.6228095 0.01601,13.4002425 m 0,0 c -0.158036,-2.074221 3.884699,7.481807 7.403019,7.524554 3.461885,0.04206 7.412859,-3.762901 7.462008,-7.224692 C 64.690243,11.825999 60.762995,7.2401901 57.3131,7.8138698 50.135473,9.0074305 51.36644,35.903277 49.775569,15.023052 Z"
       sodipodi:nodetypes="ccsaaas"
       inkscape:label="b"
       transform="translate(-45.454643,2.9829599)" />
    <path
       style="fill:none;stroke:#083e60;stroke-width:4;stroke-linecap:round;stroke-linejoin:round;stroke-dasharray:none;stroke-opacity:1"
       d="m 64.640596,15.322914 0.01601,7.292276 M 49.775569,15.023052 c -0.04164,1.958247 0.74586,3.918661 2.122309,5.312164 1.376449,1.393504 3.322037,2.204302 5.28071,2.21239 1.918776,0.0079 3.832004,-0.753195 5.213152,-2.085184 1.381148,-1.331989 2.21193,-3.221071 2.248856,-5.139508 0.0374,-1.943203 -0.741133,-3.887176 -2.101274,-5.275503 C 61.17918,8.6590843 59.256464,7.8416584 57.3131,7.8138698 55.384307,7.7862895 53.453382,8.5362953 52.056741,9.8668585 50.6601,11.197422 49.81658,13.094498 49.775569,15.023052 Z"
       id="path15"
       inkscape:path-effect="#path-effect16"
       inkscape:original-d="m 64.640596,15.322914 0.01601,7.292276 M 49.775569,15.023052 c -0.158036,-2.074221 3.884699,7.481807 7.403019,7.524554 3.461885,0.04206 7.412859,-3.762901 7.462008,-7.224692 C 64.690243,11.825999 60.762995,7.2401901 57.3131,7.8138698 50.135473,9.0074305 51.36644,35.903277 49.775569,15.023052 Z"
       sodipodi:nodetypes="ccsaaas"
       inkscape:label="a"
       transform="translate(-24.858012,2.9829599)" />
    <path
       style="fill:none;stroke:#083e60;stroke-width:4;stroke-linecap:round;stroke-linejoin:round;stroke-dasharray:none;stroke-opacity:1"
       d="m 59.229515,22.116337 c 1.114421,1.758888 3.050289,2.972234 5.119059,3.208479 1.70594,0.194811 3.478493,-0.265762 4.873814,-1.266393 M 47.431814,12.063476 c 0.0022,2.636635 1.089594,5.256316 2.955863,7.118811 1.866269,1.862495 4.488595,2.944608 7.125225,2.939182 2.629727,-0.0054 5.2409,-1.092364 7.098454,-2.953812 1.857553,-1.861449 2.938964,-4.474449 2.941178,-7.104181 C 67.554779,9.3976084 66.446619,6.7477392 64.546481,4.8778917 62.646343,3.0080441 59.978546,1.9425406 57.3131,1.9899947 54.707325,2.0363864 52.136067,3.1438098 50.311296,5.0045696 48.486525,6.8653294 47.429592,9.4572892 47.431814,12.063476 Z"
       id="path16"
       inkscape:path-effect="#path-effect18"
       inkscape:original-d="m 59.229515,22.116337 c 1.426334,1.445557 3.128715,2.901907 5.119059,3.208479 1.658987,0.255534 3.119982,-0.321374 4.873814,-1.266393 M 47.431814,12.063476 c 0.02558,4.746761 5.33426,10.062883 10.081088,10.057993 4.737055,-0.0049 10.061145,-5.320984 10.039632,-10.057993 C 67.530789,7.2755657 62.10087,1.9473804 57.3131,1.9899947 52.609684,2.0318583 47.406467,7.3599425 47.431814,12.063476 Z"
       sodipodi:nodetypes="cacaaaaa"
       inkscape:label="Q"
       transform="translate(-1.904577,2.9829599)" />
    <rect
       style="vector-effect:non-scaling-stroke;fill:#5ee9ae;fill-opacity:1;stroke:none;stroke-width:1;stroke-linecap:butt;stroke-linejoin:round;stroke-dasharray:none;stroke-opacity:1;-inkscape-stroke:hairline"
       id="rect19"
       width="8.6003056"
       height="8.5500832"
       x="71.046448"
       y="9.8506508"
       ry="0.89141816"
       inkscape:label="u2" />
    <path
       style="vector-effect:non-scaling-stroke;fill:#083e60;fill-opacity:1;stroke:none;stroke-width:1;stroke-linecap:butt;stroke-linejoin:round;stroke-dasharray:none;stroke-opacity:1;-inkscape-stroke:hairline"
       d="m 31.8209,18.0824 c 0.176772,0.407341 0.433781,0.779677 0.751972,1.089401 0.426831,0.415474 0.960423,0.715056 1.528661,0.893687 0.568238,0.17863 1.170526,0.238429 1.765355,0.207098 0.565004,-0.02976 1.128561,-0.142064 1.648879,-0.364289 0.520318,-0.222225 0.996666,-0.556745 1.355964,-0.993803 0.495503,-0.602743 0.750107,-1.372195 0.868605,-2.143415 0.118498,-0.771221 0.113205,-1.555431 0.112302,-2.335701 l -0.0058,-5.0138049 c -3.73e-4,-0.3220089 0.0037,-0.6466004 0.0718,-0.9613189 0.06813,-0.3147185 0.200651,-0.6173123 0.400827,-0.8695412 0.200176,-0.2522288 0.465161,-0.4512811 0.7601,-0.5805124 0.294939,-0.1292313 0.617423,-0.1898193 0.939331,-0.1978713 0.314417,-0.00786 0.632168,0.034389 0.926075,0.1463645 0.293908,0.111975 0.5615,0.2951499 0.765263,0.5347343 0.203763,0.2395845 0.340454,0.532648 0.411197,0.8391045 0.07074,0.3064565 0.07587,0.6237377 0.07636,0.938253 l 0.0082,5.2711464 c 0.0015,0.964853 -0.0057,1.934094 -0.157869,2.886878 -0.152144,0.952783 -0.447891,1.888895 -0.935208,2.721641 -0.744099,1.271547 -1.916706,2.267931 -3.246531,2.902029 -1.329824,0.634098 -2.811318,0.917107 -4.284477,0.93492 -2.239301,0.02708 -4.560473,-0.59968 -6.206963,-2.117663 C 28.296023,20.875031 27.550079,19.525186 27.282,18.0824 Z"
       id="path1"
       inkscape:path-effect="#path-effect2"
       inkscape:original-d="m 31.8209,18.0824 c 0,0 0.357166,0.892365 0.751972,1.089401 0.966693,0.482449 2.137828,1.159789 3.294016,1.100785 1.097737,-0.05602 2.312884,-0.504067 3.004843,-1.358092 0.962189,-1.187546 0.981661,-3.825581 0.980907,-4.479116 l -0.0058,-5.0138049 c -0.0016,-1.4014661 1.040527,-2.5917205 2.172057,-2.6092438 1.094886,-0.016956 2.176671,1.0324238 2.17889,2.4584563 l 0.0082,5.2711464 c 0.03297,1.302503 0.05359,4.087675 -1.093077,5.608519 C 41.41679,22.40006 38.392137,23.78695 35.5819,23.9874 33.40135,24.142935 31.050648,23.273652 29.374937,21.869737 28.269299,20.943431 27.282,18.0824 27.282,18.0824 Z"
       sodipodi:nodetypes="csaassascaaacc"
       inkscape:label="u1"
       transform="translate(44.090465,2.98296)" />
    <path
       style="fill:none;stroke:#083e60;stroke-width:4;stroke-linecap:round;stroke-linejoin:round;stroke-dasharray:none;stroke-opacity:1"
       d="m 49.775569,15.023052 0.01601,13.400242 m -0.01601,-13.400242 c -0.04164,1.958247 0.74586,3.918661 2.122309,5.312164 1.376449,1.393504 3.322037,2.204302 5.28071,2.21239 1.918776,0.0079 3.832004,-0.753195 5.213152,-2.085184 1.381148,-1.331989 2.21193,-3.221071 2.248856,-5.139508 0.0374,-1.943203 -0.741133,-3.887176 -2.101274,-5.275503 C 61.17918,8.6590843 59.256464,7.8416584 57.3131,7.8138698 55.384307,7.7862895 53.453382,8.5362953 52.056741,9.8668585 50.6601,11.197422 49.81658,13.094498 49.775569,15.023052 Z"
       id="path19"
       inkscape:path-effect="#path-effect21"
       inkscape:original-d="m 49.775569,15.023052 0.01601,13.400242 m -0.01601,-13.400242 c -0.158036,-2.074221 3.884699,7.481807 7.403019,7.524554 3.461885,0.04206 7.412859,-3.762901 7.462008,-7.224692 C 64.690243,11.825999 60.762995,7.2401901 57.3131,7.8138698 50.135473,9.0074305 51.36644,35.903277 49.775569,15.023052 Z"
       sodipodi:nodetypes="ccsaaas"
       inkscape:label="p"
       transform="translate(43.883813,2.9829599)" />
    <path
       id="text22"
       style="font-size:20.3438px;line-height:1;font-family:Karumbi;-inkscape-font-specification:Karumbi;fill:#1f5e84;stroke-width:0.672828;stroke-linejoin:round"
       inkscape:label="Tools"
       d="m 85.677244,30.780121 c -0.132924,0.0021 -0.2436,0.08034 -0.331756,0.234618 -0.09494,0.176314 -0.176272,0.35937 -0.244084,0.549246 -0.05425,0.176312 -0.121916,0.359369 -0.203291,0.549245 -0.108501,0.16275 -0.210224,0.359476 -0.305161,0.590039 -0.393314,0.623877 -0.800207,1.308829 -1.220646,2.054768 -0.420439,0.74594 -0.868112,1.498558 -1.3428,2.25806 l -0.244084,0.406806 c -0.08137,0.135626 -0.149263,0.244296 -0.203517,0.325671 -0.09494,0.01356 -0.176271,0.06779 -0.244084,0.162723 -0.08137,0.08138 -0.09481,0.216931 -0.04057,0.406807 0.108501,0.216999 0.291558,0.305054 0.549246,0.264368 0.244125,-0.08138 0.474683,-0.318655 0.691684,-0.711969 l 0.244084,-0.488168 c 0.08137,-0.16275 0.155987,-0.298532 0.2238,-0.407032 0.08847,-0.139024 0.166534,-0.264757 0.234393,-0.377282 0.0062,-0.01719 0.01281,-0.0342 0.02141,-0.05026 0.03209,-0.06349 0.06822,-0.125098 0.109984,-0.182782 0.0071,-0.0098 0.01431,-0.01952 0.02141,-0.0293 0.0012,-0.0019 0.0024,-0.004 0.0036,-0.0059 0.01285,-0.02307 0.02505,-0.0452 0.03651,-0.06649 -6.43e-4,0.004 -0.0013,0.0081 -0.002,0.01217 0.01886,-0.03052 0.03761,-0.06119 0.05747,-0.09105 0.03631,-0.05702 0.06744,-0.118036 0.116746,-0.165653 0.01566,-0.01675 0.02544,-0.02556 0.03245,-0.03764 0.02371,-0.03536 0.03177,-0.07952 0.05477,-0.115393 0.02747,-0.04907 0.05883,-0.09571 0.0897,-0.142664 0.02339,-0.03706 0.04673,-0.07421 0.06806,-0.112464 0.01843,-0.03177 0.02688,-0.06954 0.04553,-0.10142 0.01719,-0.03688 0.03493,-0.07364 0.05454,-0.109308 0.0086,-0.01615 0.01595,-0.03474 0.02231,-0.05048 4.85e-4,-0.0066 10e-4,-0.01063 0.0023,-0.02412 0.0086,-0.06618 0.02451,-0.131048 0.05882,-0.189092 0.02148,-0.03503 0.0444,-0.06885 0.07122,-0.100067 0.02044,-0.02968 0.0391,-0.06394 0.06378,-0.0915 0.01104,-0.01275 0.02037,-0.02691 0.02885,-0.04147 0.02726,-0.04596 0.05221,-0.09335 0.08069,-0.138608 0.02674,-0.04402 0.05526,-0.0912 0.08812,-0.12869 0.0097,-0.01828 0.01952,-0.03647 0.0311,-0.05364 0.02058,-0.03174 0.04213,-0.06283 0.06446,-0.09331 -3.45e-4,0.0015 -0.0013,0.0051 -0.0016,0.0063 0.01595,-0.03441 0.02916,-0.07016 0.0471,-0.103674 0.02467,-0.05327 0.04677,-0.107884 0.07618,-0.158891 0.02264,-0.0434 0.04698,-0.08651 0.06468,-0.132071 0.01226,-0.03512 0.02376,-0.0706 0.04012,-0.104125 0.02055,-0.0421 0.02896,-0.08974 0.05139,-0.13117 0.02235,-0.05197 0.04268,-0.104886 0.06446,-0.157088 0.02706,-0.0624 0.05683,-0.123469 0.08474,-0.185486 0.03181,-0.05847 0.06464,-0.110581 0.104125,-0.163624 0.0288,-0.04549 0.0544,-0.09302 0.0888,-0.134776 0.03263,-0.04276 0.06572,-0.08504 0.09466,-0.130493 0.04223,-0.05575 0.08792,-0.108589 0.13996,-0.155511 0.01643,-0.0175 0.03118,-0.03903 0.04665,-0.0586 0.01772,-0.02178 0.03248,-0.04593 0.04778,-0.06942 0.02269,-0.0343 0.04751,-0.06716 0.06897,-0.102096 0.01876,-0.03049 0.03766,-0.06093 0.0577,-0.0906 0.01597,-0.02189 0.0046,-0.0016 0.0169,-0.03223 0.01854,-0.05074 0.04083,-0.09998 0.06964,-0.145819 0.02681,-0.0459 0.05326,-0.09197 0.07663,-0.139734 0.03292,-0.06729 0.0699,-0.122836 0.109082,-0.167681 0.18684,-0.364313 0.296465,-0.702945 0.328827,-1.015777 -0.06781,-0.189874 -0.189926,-0.298319 -0.366239,-0.325446 -0.03306,-0.0076 -0.06489,-0.0113 -0.09556,-0.01082 z m -18.173106,0.682218 c -1.207065,0.01356 -2.386966,0.128729 -3.539782,0.34573 -1.152815,0.203438 -2.319273,0.420553 -3.499214,0.651116 -0.298376,0.04069 -0.495101,0.128743 -0.590039,0.264368 -0.122059,0.230563 -0.09495,0.427288 0.08136,0.590039 0.06781,0.05425 0.149371,0.08136 0.244309,0.08136 0.09494,0 0.182993,-0.04078 0.264368,-0.122155 0.420439,-0.01356 0.840775,-0.08145 1.261214,-0.203516 0.434,-0.135625 0.861284,-0.24407 1.281723,-0.325445 -0.05425,0.488251 -0.0948,0.983425 -0.12193,1.485239 -0.02712,0.501813 -0.07463,1.173098 -0.142438,2.013975 -0.06781,0.827315 -0.237427,1.613991 -0.508678,2.35993 -0.05425,0.271251 0.03403,0.440639 0.264594,0.508452 0.230563,0.06781 0.399952,-0.02696 0.508452,-0.284652 0.298376,-0.718815 0.501822,-1.736049 0.610322,-3.051614 0.05425,-0.542501 0.08809,-1.084951 0.101646,-1.627452 0.02712,-0.542502 0.0679,-1.058065 0.122155,-1.546317 1.424066,-0.217 2.665136,-0.325445 3.723014,-0.325445 l 0.183006,-0.06108 c 0.122063,-0.122067 0.183007,-0.210122 0.183007,-0.264369 0.02713,-0.04069 0.02713,-0.08819 0,-0.142438 v -0.04079 c 0,-0.01356 -0.0067,-0.02028 -0.02028,-0.02028 l -0.02028,-0.08136 c -0.01356,-0.05425 -0.108565,-0.121915 -0.284877,-0.203291 z m 4.942308,1.070544 c -0.531482,0.02543 -1.066931,0.272008 -1.606042,0.739915 l -0.06085,0.122155 c -0.339063,0.257688 -0.664622,0.691693 -0.976561,1.302007 -0.135625,0.230563 -0.24407,0.488232 -0.325446,0.773046 -0.1085,0.27125 -0.203502,0.515252 -0.284877,0.732252 -0.162751,0.434001 -0.08142,0.868005 0.244084,1.302007 0.325501,0.434 0.712005,0.617283 1.159568,0.549471 0.80019,-0.09494 1.458031,-0.271273 1.973407,-0.528962 0.705252,-0.339063 1.206923,-0.786737 1.505298,-1.3428 0.461126,-0.827315 0.556128,-1.607044 0.284878,-2.339421 -0.1085,-0.311938 -0.284837,-0.576554 -0.528962,-0.793555 -0.244126,-0.230562 -0.528906,-0.386508 -0.854407,-0.467884 -0.176313,-0.04069 -0.352928,-0.05671 -0.530088,-0.04823 z m 6.225157,0 c -0.531482,0.02543 -1.066931,0.272008 -1.606041,0.739915 l -0.06085,0.122155 c -0.339064,0.257688 -0.664624,0.691693 -0.976562,1.302007 -0.135625,0.230563 -0.24407,0.488232 -0.325445,0.773046 -0.1085,0.27125 -0.203502,0.515252 -0.284878,0.732252 -0.16275,0.434001 -0.08142,0.868005 0.244084,1.302007 0.325501,0.434 0.712005,0.617283 1.159569,0.549471 0.800189,-0.09494 1.45803,-0.271273 1.973407,-0.528962 0.705251,-0.339063 1.207147,-0.786737 1.505523,-1.3428 0.461126,-0.827315 0.555903,-1.607044 0.284652,-2.339421 -0.1085,-0.311938 -0.284836,-0.576554 -0.528962,-0.793555 -0.244125,-0.230562 -0.528906,-0.386508 -0.854406,-0.467884 -0.176313,-0.04069 -0.352928,-0.05671 -0.530089,-0.04823 z m -5.990088,0.807303 c 0.244126,0.01272 0.457879,0.105645 0.640974,0.278567 0.244125,0.230563 0.366013,0.576287 0.366013,1.037414 0,0.461126 -0.101723,0.840909 -0.305161,1.139284 -0.203438,0.284813 -0.461108,0.535761 -0.773046,0.752762 -0.298376,0.217 -0.630656,0.386614 -0.996845,0.508677 -0.352625,0.12206 -0.630685,0.176283 -0.834123,0.162723 -0.189876,-0.01357 -0.325432,-0.04068 -0.406807,-0.08136 -0.08137,-0.05425 -0.162708,-0.09503 -0.244084,-0.122154 -0.02713,-0.1085 -0.06791,-0.210224 -0.122154,-0.305162 -0.04069,-0.1085 -0.04741,-0.216945 -0.02028,-0.325445 0.09494,-0.52894 0.325495,-1.078336 0.691684,-1.647962 0.420438,-0.651002 0.888275,-1.010394 1.403652,-1.078207 0.176309,-0.04069 0.291701,-0.142411 0.345955,-0.305161 0.08816,-0.01356 0.172851,-0.01821 0.254226,-0.01397 z m 6.225157,0 c 0.244126,0.01272 0.45788,0.105645 0.640974,0.278567 0.244126,0.230563 0.366239,0.576287 0.366239,1.037414 0,0.461126 -0.101723,0.840909 -0.305161,1.139284 -0.203438,0.284813 -0.461107,0.535761 -0.773046,0.752762 -0.298375,0.217 -0.630657,0.386614 -0.996845,0.508677 -0.352626,0.12206 -0.630685,0.176283 -0.834123,0.162723 -0.189876,-0.01357 -0.325657,-0.04068 -0.407032,-0.08136 -0.08138,-0.05425 -0.162709,-0.09503 -0.244084,-0.122154 -0.02713,-0.1085 -0.06768,-0.210224 -0.12193,-0.305162 -0.04069,-0.1085 -0.04764,-0.216945 -0.02051,-0.325445 0.09494,-0.52894 0.325496,-1.078336 0.691684,-1.647962 0.420439,-0.651002 0.888501,-1.010394 1.403878,-1.078207 0.176316,-0.04069 0.291482,-0.142411 0.345729,-0.305161 0.08816,-0.01356 0.172851,-0.01821 0.254226,-0.01397 z m 11.148533,0.690558 c -0.712033,-0.01017 -1.576682,0.299926 -2.593872,0.930584 -0.135622,0.1085 -0.196566,0.257725 -0.183006,0.4476 0.05425,0.311939 0.176138,0.556165 0.366013,0.732478 0.203438,0.176312 0.433996,0.332259 0.691684,0.467884 0.271251,0.122063 0.549311,0.237229 0.834123,0.345729 0.284814,0.1085 0.542482,0.244056 0.773046,0.406807 -0.189876,0.135625 -0.447544,0.251017 -0.773046,0.345955 -1.112127,0.339063 -2.102025,0.434065 -2.970027,0.284877 -0.23056,0.02712 -0.373063,0.13557 -0.427316,0.325446 -0.05425,0.203438 0.03381,0.359384 0.264368,0.467884 0.732376,0.149188 1.539442,0.1288 2.421007,-0.06108 0.90869,-0.189876 1.654587,-0.488099 2.237775,-0.894975 0.06781,-0.08137 0.115312,-0.203488 0.142439,-0.366238 -0.135625,-0.515376 -0.488296,-0.92227 -1.057923,-1.220646 -0.244125,-0.149188 -0.515237,-0.271301 -0.813613,-0.366239 -0.284813,-0.09494 -0.556151,-0.223772 -0.813839,-0.386522 0.366188,-0.217 0.820583,-0.413726 1.363084,-0.590039 0.325501,-0.1085 0.623724,-0.1085 0.894975,0 0.230563,0.05425 0.400177,-0.04747 0.508677,-0.305162 0.05425,-0.135625 -0.01364,-0.284624 -0.203516,-0.447374 -0.203438,-0.07459 -0.423688,-0.113581 -0.661033,-0.116971 z m -5.594776,0.464728 v 2.26e-4 h 2.26e-4 v -2.26e-4 z m -0.09556,0.143791 c -0.0011,0.0017 -0.0022,0.0033 -0.0034,0.0056 -0.0017,0.0032 -0.0064,0.01314 -0.0047,0.0099 0.0027,-0.0051 0.0054,-0.01041 0.0081,-0.01555 z" />
    <g
       id="g4"
       transform="translate(0.07349717)">
      <path
         style="fill:none;stroke:#ffffff;stroke-linejoin:round;stroke-opacity:1"
         d="m 75.306015,10.676785 v 4.293874"
         id="path2"
         sodipodi:nodetypes="cc" />
      <path
         style="fill:none;stroke:#ffffff;stroke-linejoin:round;stroke-opacity:1"
         d="m 73.357039,13.212933 1.948976,1.757726 1.867801,-1.833057"
         id="path3"
         sodipodi:nodetypes="ccc" />
    </g>
    <path
       style="fill:none;stroke:#ffffff;stroke-linejoin:round;stroke-opacity:1"
       d="m 72.407948,15.229814 v 1.841672 h 5.877306 v -1.819773"
       id="path4"
       sodipodi:nodetypes="cccc" />
  </g>
</svg>
