<?xml version="1.0" encoding="UTF-8"?>
<svg fill="none" version="1.1" viewBox="0 0 982.92 360.98" xmlns="http://www.w3.org/2000/svg"><text x="-49.963058" y="-24.264275" display="none" fill="#1f5e84" font-family="Karumbi" font-size="20.344px" stroke-linejoin="round" stroke-width=".67283" vector-effect="non-scaling-stroke" style="-inkscape-stroke:hairline;line-height:1" xml:space="preserve"><tspan x="-108.78035" y="-62.175495" stroke-width=".67283">Tools</tspan></text><g transform="matrix(8.666 0 0 8.666 2.3239 .94309)"><g fill="none" stroke="#083e60" stroke-linecap="round" stroke-linejoin="round" stroke-width="4"><path transform="translate(-45.455 2.983)" d="m49.76 1.6228 0.01601 13.4m0 0c-0.04164 1.9582 0.74586 3.9187 2.1223 5.3122 1.3764 1.3935 3.322 2.2043 5.2807 2.2124 1.9188 0.0079 3.832-0.7532 5.2132-2.0852s2.2119-3.2211 2.2489-5.1395c0.0374-1.9432-0.74113-3.8872-2.1013-5.2755-1.3601-1.3883-3.2829-2.2058-5.2262-2.2335-1.9288-0.02758-3.8597 0.72243-5.2564 2.053-1.3966 1.3306-2.2402 3.2276-2.2812 5.1562z"/><path transform="translate(-24.858 2.983)" d="m64.641 15.323 0.01601 7.2923m-14.881-7.5921c-0.04164 1.9582 0.74586 3.9187 2.1223 5.3122 1.3764 1.3935 3.322 2.2043 5.2807 2.2124 1.9188 0.0079 3.832-0.7532 5.2132-2.0852s2.2119-3.2211 2.2489-5.1395c0.0374-1.9432-0.74113-3.8872-2.1013-5.2755-1.3601-1.3883-3.2829-2.2058-5.2262-2.2335-1.9288-0.02758-3.8597 0.72243-5.2564 2.053-1.3966 1.3306-2.2402 3.2276-2.2812 5.1562z"/><path transform="translate(-1.9046 2.983)" d="m59.23 22.116c1.1144 1.7589 3.0503 2.9722 5.1191 3.2085 1.7059 0.19481 3.4785-0.26576 4.8738-1.2664m-21.791-11.995c0.0022 2.6366 1.0896 5.2563 2.9559 7.1188s4.4886 2.9446 7.1252 2.9392c2.6297-0.0054 5.2409-1.0924 7.0985-2.9538 1.8576-1.8614 2.939-4.4744 2.9412-7.1042 0.002245-2.6659-1.1059-5.3157-3.0061-7.1856-1.9001-1.8698-4.5679-2.9354-7.2334-2.8879-2.6058 0.046392-5.177 1.1538-7.0018 3.0146s-2.8817 4.4527-2.8795 7.0589z"/></g><rect x="71.046" y="9.8507" width="8.6003" height="8.5501" ry=".89142" fill="#5ee9ae" vector-effect="non-scaling-stroke" style="-inkscape-stroke:hairline"/><path transform="translate(44.09 2.983)" d="m31.821 18.082c0.17677 0.40734 0.43378 0.77968 0.75197 1.0894 0.42683 0.41547 0.96042 0.71506 1.5287 0.89369 0.56824 0.17863 1.1705 0.23843 1.7654 0.2071 0.565-0.02976 1.1286-0.14206 1.6489-0.36429s0.99667-0.55674 1.356-0.9938c0.4955-0.60274 0.75011-1.3722 0.8686-2.1434 0.1185-0.77122 0.1132-1.5554 0.1123-2.3357l-0.0058-5.0138c-3.73e-4 -0.32201 0.0037-0.6466 0.0718-0.96132 0.06813-0.31472 0.20065-0.61731 0.40083-0.86954 0.20018-0.25223 0.46516-0.45128 0.7601-0.58051s0.61742-0.18982 0.93933-0.19787c0.31442-0.00786 0.63217 0.034389 0.92608 0.14636 0.29391 0.11198 0.5615 0.29515 0.76526 0.53473 0.20376 0.23958 0.34045 0.53265 0.4112 0.8391 0.07074 0.30646 0.07587 0.62374 0.07636 0.93825l0.0082 5.2711c0.0015 0.96485-0.0057 1.9341-0.15787 2.8869-0.15214 0.95278-0.44789 1.8889-0.93521 2.7216-0.7441 1.2715-1.9167 2.2679-3.2465 2.902-1.3298 0.6341-2.8113 0.91711-4.2845 0.93492-2.2393 0.02708-4.5605-0.59968-6.207-2.1177-1.0789-0.99471-1.8249-2.3446-2.0929-3.7873z" fill="#083e60" vector-effect="non-scaling-stroke" style="-inkscape-stroke:hairline"/><path transform="translate(43.884 2.983)" d="m49.776 15.023 0.01601 13.4m-0.01601-13.4c-0.04164 1.9582 0.74586 3.9187 2.1223 5.3122 1.3764 1.3935 3.322 2.2043 5.2807 2.2124 1.9188 0.0079 3.832-0.7532 5.2132-2.0852s2.2119-3.2211 2.2489-5.1395c0.0374-1.9432-0.74113-3.8872-2.1013-5.2755-1.3601-1.3883-3.2829-2.2058-5.2262-2.2335-1.9288-0.02758-3.8597 0.72243-5.2564 2.053-1.3966 1.3306-2.2402 3.2276-2.2812 5.1562z" fill="none" stroke="#083e60" stroke-linecap="round" stroke-linejoin="round" stroke-width="4"/><path d="m85.677 30.78c-0.13292 0.0021-0.2436 0.08034-0.33176 0.23462-0.09494 0.17631-0.17627 0.35937-0.24408 0.54925-0.05425 0.17631-0.12192 0.35937-0.20329 0.54924-0.1085 0.16275-0.21022 0.35948-0.30516 0.59004-0.39331 0.62388-0.80021 1.3088-1.2206 2.0548-0.42044 0.74594-0.86811 1.4986-1.3428 2.2581l-0.24408 0.40681c-0.08137 0.13563-0.14926 0.2443-0.20352 0.32567-0.09494 0.01356-0.17627 0.06779-0.24408 0.16272-0.08137 0.08138-0.09481 0.21693-0.04057 0.40681 0.1085 0.217 0.29156 0.30505 0.54925 0.26437 0.24412-0.08138 0.47468-0.31866 0.69168-0.71197l0.24408-0.48817c0.08137-0.16275 0.15599-0.29853 0.2238-0.40703 0.08847-0.13902 0.16653-0.26476 0.23439-0.37728 0.0062-0.01719 0.01281-0.0342 0.02141-0.05026 0.03209-0.06349 0.06822-0.1251 0.10998-0.18278 0.0071-0.0098 0.01431-0.01952 0.02141-0.0293 0.0012-0.0019 0.0024-4e-3 0.0036-0.0059 0.01285-0.02307 0.02505-0.0452 0.03651-0.06649-6.43e-4 4e-3 -0.0013 0.0081-2e-3 0.01217 0.01886-0.03052 0.03761-0.06119 0.05747-0.09105 0.03631-0.05702 0.06744-0.11804 0.11675-0.16565 0.01566-0.01675 0.02544-0.02556 0.03245-0.03764 0.02371-0.03536 0.03177-0.07952 0.05477-0.11539 0.02747-0.04907 0.05883-0.09571 0.0897-0.14266 0.02339-0.03706 0.04673-0.07421 0.06806-0.11246 0.01843-0.03177 0.02688-0.06954 0.04553-0.10142 0.01719-0.03688 0.03493-0.07364 0.05454-0.10931 0.0086-0.01615 0.01595-0.03474 0.02231-0.05048 4.85e-4 -0.0066 1e-3 -0.01063 0.0023-0.02412 0.0086-0.06618 0.02451-0.13105 0.05882-0.18909 0.02148-0.03503 0.0444-0.06885 0.07122-0.10007 0.02044-0.02968 0.0391-0.06394 0.06378-0.0915 0.01104-0.01275 0.02037-0.02691 0.02885-0.04147 0.02726-0.04596 0.05221-0.09335 0.08069-0.13861 0.02674-0.04402 0.05526-0.0912 0.08812-0.12869 0.0097-0.01828 0.01952-0.03647 0.0311-0.05364 0.02058-0.03174 0.04213-0.06283 0.06446-0.09331-3.45e-4 0.0015-0.0013 0.0051-0.0016 0.0063 0.01595-0.03441 0.02916-0.07016 0.0471-0.10367 0.02467-0.05327 0.04677-0.10788 0.07618-0.15889 0.02264-0.0434 0.04698-0.08651 0.06468-0.13207 0.01226-0.03512 0.02376-0.0706 0.04012-0.10412 0.02055-0.0421 0.02896-0.08974 0.05139-0.13117 0.02235-0.05197 0.04268-0.10489 0.06446-0.15709 0.02706-0.0624 0.05683-0.12347 0.08474-0.18549 0.03181-0.05847 0.06464-0.11058 0.10412-0.16362 0.0288-0.04549 0.0544-0.09302 0.0888-0.13478 0.03263-0.04276 0.06572-0.08504 0.09466-0.13049 0.04223-0.05575 0.08792-0.10859 0.13996-0.15551 0.01643-0.0175 0.03118-0.03903 0.04665-0.0586 0.01772-0.02178 0.03248-0.04593 0.04778-0.06942 0.02269-0.0343 0.04751-0.06716 0.06897-0.1021 0.01876-0.03049 0.03766-0.06093 0.0577-0.0906 0.01597-0.02189 0.0046-0.0016 0.0169-0.03223 0.01854-0.05074 0.04083-0.09998 0.06964-0.14582 0.02681-0.0459 0.05326-0.09197 0.07663-0.13973 0.03292-0.06729 0.0699-0.12284 0.10908-0.16768 0.18684-0.36431 0.29646-0.70294 0.32883-1.0158-0.06781-0.18987-0.18993-0.29832-0.36624-0.32545-0.03306-0.0076-0.06489-0.0113-0.09556-0.01082zm-18.173 0.68222c-1.2071 0.01356-2.387 0.12873-3.5398 0.34573-1.1528 0.20344-2.3193 0.42055-3.4992 0.65112-0.29838 0.04069-0.4951 0.12874-0.59004 0.26437-0.12206 0.23056-0.09495 0.42729 0.08136 0.59004 0.06781 0.05425 0.14937 0.08136 0.24431 0.08136 0.09494 0 0.18299-0.04078 0.26437-0.12216 0.42044-0.01356 0.84078-0.08145 1.2612-0.20352 0.434-0.13562 0.86128-0.24407 1.2817-0.32544-0.05425 0.48825-0.0948 0.98342-0.12193 1.4852-0.02712 0.50181-0.07463 1.1731-0.14244 2.014-0.06781 0.82732-0.23743 1.614-0.50868 2.3599-0.05425 0.27125 0.03403 0.44064 0.26459 0.50845 0.23056 0.06781 0.39995-0.02696 0.50845-0.28465 0.29838-0.71882 0.50182-1.736 0.61032-3.0516 0.05425-0.5425 0.08809-1.085 0.10165-1.6275 0.02712-0.5425 0.0679-1.0581 0.12216-1.5463 1.4241-0.217 2.6651-0.32544 3.723-0.32544l0.18301-0.06108c0.12206-0.12207 0.18301-0.21012 0.18301-0.26437 0.02713-0.04069 0.02713-0.08819 0-0.14244v-0.04079c0-0.01356-0.0067-0.02028-0.02028-0.02028l-0.02028-0.08136c-0.01356-0.05425-0.10856-0.12192-0.28488-0.20329zm4.9423 1.0705c-0.53148 0.02543-1.0669 0.27201-1.606 0.73992l-0.06085 0.12216c-0.33906 0.25769-0.66462 0.69169-0.97656 1.302-0.13562 0.23056-0.24407 0.48823-0.32545 0.77305-0.1085 0.27125-0.2035 0.51525-0.28488 0.73225-0.16275 0.434-0.08142 0.868 0.24408 1.302 0.3255 0.434 0.712 0.61728 1.1596 0.54947 0.80019-0.09494 1.458-0.27127 1.9734-0.52896 0.70525-0.33906 1.2069-0.78674 1.5053-1.3428 0.46113-0.82732 0.55613-1.607 0.28488-2.3394-0.1085-0.31194-0.28484-0.57655-0.52896-0.79356-0.24413-0.23056-0.52891-0.38651-0.85441-0.46788-0.17631-0.04069-0.35293-0.05671-0.53009-0.04823zm6.2252 0c-0.53148 0.02543-1.0669 0.27201-1.606 0.73992l-0.06085 0.12216c-0.33906 0.25769-0.66462 0.69169-0.97656 1.302-0.13562 0.23056-0.24407 0.48823-0.32544 0.77305-0.1085 0.27125-0.2035 0.51525-0.28488 0.73225-0.16275 0.434-0.08142 0.868 0.24408 1.302 0.3255 0.434 0.712 0.61728 1.1596 0.54947 0.80019-0.09494 1.458-0.27127 1.9734-0.52896 0.70525-0.33906 1.2071-0.78674 1.5055-1.3428 0.46113-0.82732 0.5559-1.607 0.28465-2.3394-0.1085-0.31194-0.28484-0.57655-0.52896-0.79356-0.24412-0.23056-0.52891-0.38651-0.85441-0.46788-0.17631-0.04069-0.35293-0.05671-0.53009-0.04823zm-5.9901 0.8073c0.24413 0.01272 0.45788 0.10564 0.64097 0.27857 0.24412 0.23056 0.36601 0.57629 0.36601 1.0374 0 0.46113-0.10172 0.84091-0.30516 1.1393-0.20344 0.28481-0.46111 0.53576-0.77305 0.75276-0.29838 0.217-0.63066 0.38661-0.99684 0.50868-0.35262 0.12206-0.63068 0.17628-0.83412 0.16272-0.18988-0.01357-0.32543-0.04068-0.40681-0.08136-0.08137-0.05425-0.16271-0.09503-0.24408-0.12215-0.02713-0.1085-0.06791-0.21022-0.12215-0.30516-0.04069-0.1085-0.04741-0.21694-0.02028-0.32544 0.09494-0.52894 0.3255-1.0783 0.69168-1.648 0.42044-0.651 0.88828-1.0104 1.4037-1.0782 0.17631-0.04069 0.2917-0.14241 0.34596-0.30516 0.08816-0.01356 0.17285-0.01821 0.25423-0.01397zm6.2252 0c0.24413 0.01272 0.45788 0.10564 0.64097 0.27857 0.24413 0.23056 0.36624 0.57629 0.36624 1.0374 0 0.46113-0.10172 0.84091-0.30516 1.1393-0.20344 0.28481-0.46111 0.53576-0.77305 0.75276-0.29838 0.217-0.63066 0.38661-0.99684 0.50868-0.35263 0.12206-0.63068 0.17628-0.83412 0.16272-0.18988-0.01357-0.32566-0.04068-0.40703-0.08136-0.08138-0.05425-0.16271-0.09503-0.24408-0.12215-0.02713-0.1085-0.06768-0.21022-0.12193-0.30516-0.04069-0.1085-0.04764-0.21694-0.02051-0.32544 0.09494-0.52894 0.3255-1.0783 0.69168-1.648 0.42044-0.651 0.8885-1.0104 1.4039-1.0782 0.17632-0.04069 0.29148-0.14241 0.34573-0.30516 0.08816-0.01356 0.17285-0.01821 0.25423-0.01397zm11.149 0.69056c-0.71203-0.01017-1.5767 0.29993-2.5939 0.93058-0.13562 0.1085-0.19657 0.25772-0.18301 0.4476 0.05425 0.31194 0.17614 0.55616 0.36601 0.73248 0.20344 0.17631 0.434 0.33226 0.69168 0.46788 0.27125 0.12206 0.54931 0.23723 0.83412 0.34573 0.28481 0.1085 0.54248 0.24406 0.77305 0.40681-0.18988 0.13562-0.44754 0.25102-0.77305 0.34596-1.1121 0.33906-2.102 0.43406-2.97 0.28488-0.23056 0.02712-0.37306 0.13557-0.42732 0.32545-0.05425 0.20344 0.03381 0.35938 0.26437 0.46788 0.73238 0.14919 1.5394 0.1288 2.421-0.06108 0.90869-0.18988 1.6546-0.4881 2.2378-0.89498 0.06781-0.08137 0.11531-0.20349 0.14244-0.36624-0.13562-0.51538-0.4883-0.92227-1.0579-1.2206-0.24412-0.14919-0.51524-0.2713-0.81361-0.36624-0.28481-0.09494-0.55615-0.22377-0.81384-0.38652 0.36619-0.217 0.82058-0.41373 1.3631-0.59004 0.3255-0.1085 0.62372-0.1085 0.89498 0 0.23056 0.05425 0.40018-0.04747 0.50868-0.30516 0.05425-0.13562-0.01364-0.28462-0.20352-0.44737-0.20344-0.07459-0.42369-0.11358-0.66103-0.11697zm-5.5948 0.46473v2.26e-4h2.26e-4v-2.26e-4zm-0.09556 0.14379c-0.0011 0.0017-0.0022 0.0033-0.0034 0.0056-0.0017 0.0032-0.0064 0.01314-0.0047 0.0099 0.0027-0.0051 0.0054-0.01041 0.0081-0.01555z" fill="#1f5e84" stroke-linejoin="round" stroke-width=".67283"/><g transform="translate(.073497)" fill="none" stroke="#fff" stroke-linejoin="round"><path d="m75.306 10.677v4.2939"/><path d="m73.357 13.213 1.949 1.7577 1.8678-1.8331"/></g><path d="m72.408 15.23v1.8417h5.8773v-1.8198" fill="none" stroke="#fff" stroke-linejoin="round"/></g></svg>
